#!OML:ASF I:\Actors\actors\Patient Classification 2\Patient 1\Session 1\actor1.ASF
:FULLY-SPECIFIED
:DEGREES
184
root -1.01529 18.1256 5.99107 -1.91357 -1.13329 -3.62486
lowerback 7.22962 0.895223 1.0438
upperback 0.977114 1.29544 0.683395
thorax -3.03591 0.635558 -0.00709391
lowerneck 7.05005 -0.83514 0.250086
upperneck 16.2354 -1.2353 1.07492
head 4.10611 -0.554307 0.29847
rclavicle -2.33696e-014 -3.97569e-016
rhumerus -1.29997 14.475 -33.7627
rradius 153.618
rwrist -42.3789
rhand -14.5433 -35.9025
rfingers 7.12502
rthumb 11.6052 -65.5612
lclavicle -2.33696e-014 -3.97569e-016
lhumerus 10.1253 -25.7077 36.1186
lradius 151.062
lwrist 56.2744
lhand -36.4466 -38.5797
lfingers 7.12502
lthumb -9.54077 -8.81567
rfemur 12.3175 1.51427 20.2017
rtibia -7.95139e-015
rfoot -18.6609 -10.2153
rtoes 5.88283
lfemur 20.485 -6.86561 -13.9164
ltibia -18.6574
lfoot -3.77193 21.6015
ltoes -11.5228
185
root -1.01615 18.1275 5.99481 -1.87278 -1.10972 -3.66444
lowerback 7.37468 0.873913 1.02329
upperback 0.901805 1.27017 0.726519
thorax -3.19638 0.622459 0.0481184
lowerneck 6.83136 -0.816028 0.365982
upperneck 16.1091 -1.1883 0.91971
head 4.09724 -0.53019 0.226454
rclavicle 7.45443e-017 -4.96962e-015
rhumerus -1.4229 14.7266 -33.2748
rradius 153.609
rwrist -42.183
rhand -14.5651 -35.0317
rfingers 7.12502
rthumb 11.5842 -64.6916
lclavicle 7.45443e-017 -4.96962e-015
lhumerus 10.5884 -25.6159 35.335
lradius 151.076
lwrist 56.3341
lhand -36.3628 -39.0178
lfingers 7.12502
lthumb -9.45987 -9.25009
rfemur 12.2852 1.48767 20.2469
rtibia -2.38542e-014
rfoot -18.6736 -10.2136
rtoes 5.99922
lfemur 20.3695 -6.89759 -13.8666
ltibia -18.5013
lfoot -3.82927 21.6574
ltoes -11.7808
186
root -1.01806 18.1298 5.99715 -1.84163 -1.12398 -3.68898
lowerback 7.60999 0.857905 0.970778
upperback 0.783317 1.25167 0.779253
thorax -3.45291 0.612769 0.128846
lowerneck 6.64947 -0.795142 0.397938
upperneck 16.0165 -1.1527 0.853996
head 4.09569 -0.513331 0.198827
rclavicle -1.62631e-014 -2.06736e-014
rhumerus -1.6511 14.9998 -32.7512
rradius 153.506
rwrist -42.093
rhand -14.4992 -34.0716
rfingers 7.12502
rthumb 11.6478 -63.7278
lclavicle -1.62631e-014 -2.06736e-014
lhumerus 11 -25.4046 34.4667
lradius 151.077
lwrist 56.5679
lhand -36.1459 -39.6171
lfingers 7.12502
lthumb -9.25062 -9.84002
rfemur 12.2573 1.4974 20.2863
rtibia 3.33958e-014
rfoot -18.6575 -10.2533
rtoes 5.84906
lfemur 20.2955 -6.83526 -13.8133
ltibia -18.4156
lfoot -3.83343 21.6352
ltoes -11.998
187
root -1.01955 18.1312 5.99952 -1.84129 -1.15961 -3.68106
lowerback 7.93374 0.849488 0.923074
upperback 0.637209 1.24406 0.800716
thorax -3.78693 0.608041 0.17203
lowerneck 6.45529 -0.768039 0.3292
upperneck 15.9703 -1.13072 0.944905
head 4.11565 -0.502914 0.240583
rclavicle 2.96935e-015 -2.18663e-015
rhumerus -1.23585 15.2669 -31.6647
rradius 153.484
rwrist -42.2468
rhand -14.7233 -33.8334
rfingers 7.12502
rthumb 11.4317 -63.5018
lclavicle 2.96935e-015 -2.18663e-015
lhumerus 11.4375 -25.2804 33.3988
lradius 151.07
lwrist 56.6595
lhand -36.2346 -40.3166
lfingers 7.12502
lthumb -9.33621 -10.5433
rfemur 12.2599 1.53061 20.2899
rtibia 2.06736e-014
rfoot -18.6273 -10.3043
rtoes 5.63445
lfemur 20.2842 -6.69976 -13.7896
ltibia -18.3837
lfoot -3.81138 21.5639
ltoes -12.2069
188
root -1.02105 18.1311 6.00025 -1.83427 -1.17259 -3.63125
lowerback 8.26809 0.85115 0.861526
upperback 0.476027 1.24693 0.782449
thorax -4.1424 0.608531 0.180571
lowerneck 6.36048 -0.749268 0.423939
upperneck 15.8753 -1.10613 0.970505
head 4.09779 -0.484796 0.232759
rclavicle 4.32357e-015 -1.39149e-015
rhumerus -0.887638 15.4962 -30.5397
rradius 153.493
rwrist -42.306
rhand -14.8215 -33.969
rfingers 7.12502
rthumb 11.3369 -63.6426
lclavicle 4.32357e-015 -1.39149e-015
lhumerus 11.9565 -25.1024 32.0966
lradius 151.055
lwrist 56.6936
lhand -36.483 -40.8852
lfingers 7.12502
lthumb -9.57585 -11.1228
rfemur 12.2434 1.54436 20.2437
rtibia -2.06736e-014
rfoot -18.5836 -10.3711
rtoes 5.37402
lfemur 20.2464 -6.60584 -13.8151
ltibia -18.3242
lfoot -3.84305 21.5283
ltoes -12.2502
189
root -1.02417 18.1316 5.9982 -1.78371 -1.19025 -3.6207
lowerback 8.53965 0.837001 0.778929
upperback 0.334397 1.2274 0.817385
thorax -4.44458 0.59936 0.26004
lowerneck 6.32518 -0.695621 0.541101
upperneck 15.695 -1.02461 0.926095
head 4.0369 -0.440704 0.198838
rclavicle 1.45734e-014 -1.39149e-015
rhumerus -0.370503 15.6752 -29.219
rradius 153.438
rwrist -42.491
rhand -14.9331 -33.9552
rfingers 7.12502
rthumb 11.2293 -63.6346
lclavicle 1.45734e-014 -1.39149e-015
lhumerus 12.4008 -24.6745 30.6816
lradius 151.063
lwrist 56.8208
lhand -36.5913 -41.5826
lfingers 7.12502
lthumb -9.68036 -11.8251
rfemur 12.171 1.55884 20.2471
rtibia -6.99722e-014
rfoot -18.5447 -10.4253
rtoes 5.32775
lfemur 20.1422 -6.50774 -13.78
ltibia -18.2324
lfoot -3.9165 21.4729
ltoes -11.8537
190
root -1.01879 18.1376 5.99102 -1.65002 -1.3993 -3.64092
lowerback 8.83068 0.852127 0.846036
upperback 0.165711 1.26267 0.862353
thorax -4.7835 0.6142 0.258691
lowerneck 6.22809 -0.603056 0.463207
upperneck 15.5661 -0.911414 1.00293
head 4.00825 -0.387056 0.239195
rclavicle -7.45443e-016 -4.96962e-015
rhumerus 0.332538 15.7515 -27.6397
rradius 153.29
rwrist -42.9288
rhand -15.1502 -33.6188
rfingers 7.12502
rthumb 11.0199 -63.3095
lclavicle -7.45443e-016 -4.96962e-015
lhumerus 12.7873 -24.245 29.2151
lradius 151.052
lwrist 56.8631
lhand -36.684 -42.3694
lfingers 7.12502
lthumb -9.76974 -12.616
rfemur 11.9451 1.77162 20.2548
rtibia -2.8625e-014
rfoot -18.4533 -10.5104
rtoes 5.25885
lfemur 19.9658 -6.41903 -13.7716
ltibia -18.1287
lfoot -4.03024 21.6147
ltoes -11.4871
191
root -0.996381 18.1505 5.97568 -1.39221 -1.91953 -3.59962
lowerback 9.19782 0.962863 1.13345
upperback -0.0790021 1.44681 0.809555
thorax -5.23743 0.694483 0.0095611
lowerneck 6.05394 -0.54337 0.395467
upperneck 15.5695 -0.846226 1.09858
head 4.04235 -0.35476 0.283294
rclavicle -2.74074e-014 -5.76476e-015
rhumerus 0.982582 15.7472 -25.9106
rradius 153.151
rwrist -43.4325
rhand -15.3845 -33.5033
rfingers 7.12502
rthumb 10.7939 -63.2059
lclavicle -2.74074e-014 -5.76476e-015
lhumerus 13.2178 -23.8874 27.6112
lradius 150.983
lwrist 56.9144
lhand -36.8307 -43.1809
lfingers 7.12502
lthumb -9.91132 -13.4342
rfemur 11.4576 2.31606 20.1275
rtibia 2.70347e-014
rfoot -18.2652 -10.7047
rtoes 4.95992
lfemur 19.6862 -6.51032 -13.9771
ltibia -18.0317
lfoot -4.28591 22.2719
ltoes -10.9139
